<svg width="492" height="492" viewBox="0 0 492 492" fill="none" xmlns="http://www.w3.org/2000/svg">
<g clip-path="url(#clip0_1_2)">
<path fill-rule="evenodd" clip-rule="evenodd" d="M245.781 -0.010437C381.464 -0.010437 491.453 109.979 491.453 245.661C491.453 381.339 381.464 491.328 245.781 491.328C110.104 491.328 0.114563 381.339 0.114563 245.661C0.114563 109.979 110.104 -0.010437 245.781 -0.010437ZM356.948 52.2239L323.203 97.4114C303.109 86.8958 280.615 80.3385 256.755 78.7916C252.865 75.7291 248.078 73.9271 242.906 73.9271C237.443 73.9271 232.417 75.9375 228.411 79.3177C204.667 81.7708 182.396 89.1875 162.656 100.521L129.021 55.5677C162.984 34.6614 202.974 22.5937 245.781 22.5937C286.26 22.5937 324.224 33.375 356.948 52.2239ZM328.844 100.495L362.443 55.5104C426.276 94.7552 468.849 165.234 468.849 245.661C468.849 361.219 380.984 456.25 268.417 467.594C270.083 464.021 271.016 460.042 271.016 455.839C271.016 450.349 269.427 445.234 266.677 440.922C269.078 439.562 270.698 436.99 270.698 434.031C270.698 429.74 267.276 426.245 263.005 426.125V412.021C347.276 403.396 413.021 332.208 413.021 245.661C413.021 183.531 379.135 129.328 328.844 100.495ZM157.172 103.812L123.635 58.9948C62.8594 98.8489 22.7135 167.562 22.7135 245.661C22.7135 359.354 107.771 453.172 217.719 466.974C216.229 463.568 215.396 459.797 215.396 455.839C215.396 450.453 216.927 445.427 219.578 441.172C216.917 439.896 215.078 437.182 215.078 434.031C215.078 429.724 218.521 426.224 222.807 426.125V411.318C141.318 400.12 78.5469 330.224 78.5469 245.661C78.5469 185.844 109.953 133.375 157.172 103.812ZM254.25 143.594L264.552 146.698C263.859 149.583 262.771 152 261.276 153.927C259.792 155.865 257.948 157.328 255.74 158.307C253.536 159.292 250.729 159.786 247.323 159.786C243.182 159.786 239.807 159.182 237.182 157.99C234.562 156.786 232.307 154.672 230.401 151.656C228.5 148.635 227.547 144.76 227.547 140.052C227.547 133.771 229.219 128.937 232.562 125.557C235.917 122.187 240.651 120.495 246.776 120.495C251.562 120.495 255.333 121.464 258.073 123.401C260.807 125.339 262.854 128.312 264.182 132.328L253.828 134.62C253.464 133.469 253.083 132.63 252.687 132.099C252.021 131.203 251.214 130.516 250.271 130.036C249.312 129.547 248.25 129.312 247.073 129.312C244.401 129.312 242.359 130.38 240.943 132.516C239.87 134.099 239.333 136.594 239.333 139.984C239.333 144.193 239.969 147.068 241.25 148.635C242.536 150.193 244.333 150.974 246.651 150.974C248.896 150.974 250.599 150.344 251.745 149.078C252.896 147.823 253.729 145.99 254.25 143.594ZM123.745 232.417H134.714L148.969 253.406V232.417H160.062V270.432H148.969L134.792 249.557V270.432H123.745V232.417ZM178.854 232.417H196.312C199.745 232.417 202.536 232.885 204.651 233.818C206.766 234.75 208.521 236.089 209.906 237.833C211.292 239.583 212.281 241.615 212.906 243.932C213.526 246.25 213.844 248.698 213.844 251.292C213.844 255.354 213.38 258.505 212.453 260.745C211.531 262.979 210.25 264.859 208.604 266.37C206.958 267.885 205.198 268.896 203.312 269.396C200.74 270.089 198.401 270.432 196.312 270.432H178.854V232.417ZM190.589 241.021V261.776H193.474C195.932 261.776 197.687 261.51 198.729 260.964C199.766 260.422 200.578 259.469 201.172 258.115C201.766 256.755 202.057 254.557 202.057 251.516C202.057 247.49 201.401 244.734 200.083 243.25C198.766 241.76 196.578 241.021 193.526 241.021H190.589ZM228.375 257.859L239.526 257.161C239.76 258.964 240.26 260.349 241 261.281C242.214 262.812 243.937 263.583 246.187 263.583C247.859 263.583 249.151 263.187 250.052 262.406C250.964 261.62 251.417 260.708 251.417 259.672C251.417 258.693 250.99 257.802 250.135 257.026C249.276 256.25 247.271 255.521 244.135 254.823C238.984 253.677 235.323 252.125 233.125 250.214C230.922 248.297 229.807 245.859 229.807 242.885C229.807 240.937 230.38 239.099 231.505 237.365C232.641 235.625 234.339 234.255 236.615 233.266C238.885 232.276 242 231.781 245.958 231.781C250.818 231.781 254.516 232.687 257.062 234.495C259.609 236.302 261.125 239.177 261.609 243.125L250.568 243.781C250.276 242.052 249.651 240.797 248.719 240.021C247.771 239.234 246.469 238.844 244.818 238.844C243.453 238.844 242.417 239.135 241.729 239.708C241.036 240.286 240.693 240.995 240.693 241.823C240.693 242.427 240.984 242.958 241.531 243.453C242.078 243.948 243.385 244.411 245.453 244.849C250.583 245.943 254.26 247.083 256.469 248.214C258.687 249.344 260.312 250.745 261.318 252.427C262.323 254.099 262.833 255.974 262.833 258.052C262.833 260.484 262.161 262.74 260.812 264.797C259.469 266.849 257.583 268.417 255.161 269.479C252.745 270.536 249.698 271.068 246.021 271.068C239.557 271.068 235.083 269.823 232.594 267.333C230.109 264.849 228.703 261.693 228.375 257.859ZM273.807 232.417H289.302L295.203 255.547L301.125 232.417H316.547V270.432H306.937V241.453L299.521 270.432H290.812L283.417 241.453V270.432H273.807V232.417ZM327.677 232.417H345.135C348.568 232.417 351.354 232.885 353.469 233.818C355.583 234.755 357.339 236.089 358.724 237.833C360.104 239.583 361.104 241.609 361.724 243.932C362.354 246.25 362.661 248.698 362.661 251.292C362.661 255.354 362.203 258.505 361.276 260.745C360.354 262.984 359.073 264.859 357.427 266.37C355.781 267.885 354.021 268.896 352.135 269.396C349.557 270.089 347.224 270.432 345.135 270.432H327.677V232.417ZM339.406 241.021V261.776H342.292C344.755 261.776 346.505 261.505 347.552 260.964C348.583 260.417 349.401 259.469 349.99 258.115C350.583 256.75 350.875 254.557 350.875 251.516C350.875 247.49 350.224 244.734 348.906 243.25C347.583 241.76 345.401 241.021 342.349 241.021H339.406ZM228.385 205.521L239.536 204.823C239.776 206.63 240.271 208.01 241.016 208.948C242.224 210.479 243.953 211.25 246.198 211.25C247.87 211.25 249.161 210.859 250.068 210.073C250.979 209.281 251.427 208.37 251.427 207.339C251.427 206.354 251.005 205.469 250.146 204.693C249.286 203.911 247.286 203.187 244.146 202.49C238.995 201.339 235.333 199.797 233.135 197.875C230.927 195.964 229.818 193.526 229.818 190.552C229.818 188.604 230.385 186.76 231.516 185.026C232.651 183.286 234.349 181.922 236.625 180.932C238.896 179.943 242.01 179.443 245.969 179.443C250.828 179.443 254.526 180.349 257.073 182.161C259.625 183.969 261.135 186.844 261.625 190.786L250.578 191.443C250.286 189.719 249.667 188.464 248.729 187.682C247.781 186.896 246.484 186.505 244.828 186.505C243.464 186.505 242.427 186.797 241.74 187.375C241.047 187.948 240.703 188.656 240.703 189.49C240.703 190.089 240.984 190.63 241.542 191.115C242.083 191.62 243.396 192.083 245.464 192.516C250.599 193.62 254.271 194.745 256.479 195.875C258.703 197.01 260.323 198.406 261.328 200.089C262.339 201.76 262.844 203.635 262.844 205.719C262.844 208.151 262.172 210.396 260.828 212.458C259.474 214.516 257.594 216.078 255.172 217.141C252.755 218.203 249.714 218.734 246.031 218.734C239.573 218.734 235.094 217.484 232.604 215C230.12 212.516 228.714 209.354 228.385 205.521ZM224.411 293.198H239.906L245.807 316.328L251.729 293.198H267.151V331.214H257.542V302.234L250.125 331.214H241.422L234.021 302.234V331.214H224.411V293.198ZM231.87 349.49H243.599V378.161H261.974V387.505H231.87V349.49ZM137.505 225.719H214.51V131.094C209.333 127.344 202.12 120.427 199.224 116.276C193.458 108.042 203.922 98.0781 212.682 103.333C215.005 104.729 218.208 107.167 221.276 109.901C219.995 106.74 219.281 103.25 219.281 99.5729C219.281 95.5573 220.13 91.7552 221.646 88.375C146.922 99.7448 89.2864 163.104 86.7708 240.396C90.8594 233.62 98.7083 229.042 107.719 229.042C110.823 229.042 113.792 229.583 116.516 230.578C114.307 228.021 112.385 225.443 111.234 223.516C106.323 215.339 115.625 205.568 123.318 210.948C127.328 213.75 134.104 220.859 137.505 225.719ZM271.302 225.719H354.057C357.458 220.859 364.24 213.75 368.245 210.948C375.943 205.568 385.245 215.339 380.333 223.516C379.177 225.443 377.255 228.021 375.052 230.578C377.776 229.583 380.745 229.042 383.849 229.042C392.859 229.042 400.703 233.62 404.792 240.391C402.208 161.005 341.469 96.3281 263.792 87.5729C265.542 91.1562 266.531 95.2396 266.531 99.5729C266.531 102.896 265.948 106.073 264.885 108.99C267.625 106.63 270.385 104.573 272.443 103.333C281.203 98.0781 291.667 108.042 285.906 116.276C283.13 120.245 276.411 126.75 271.302 130.583V225.719ZM403.937 263.12C399.667 269.167 392.266 273.167 383.849 273.167C380.417 273.167 377.151 272.5 374.203 271.302C376.755 274.167 379.031 277.161 380.333 279.333C385.245 287.51 375.943 297.281 368.245 291.901C364.24 289.104 357.464 281.99 354.057 277.13H271.302V383.5C277.292 387.719 282.307 393.24 285.953 399.646C348.922 383.266 396.714 329.292 403.937 263.12ZM214.51 277.13H137.505C134.104 281.99 127.328 289.104 123.318 291.901C115.625 297.281 106.323 287.51 111.234 279.333C112.536 277.161 114.807 274.167 117.365 271.302C114.411 272.5 111.151 273.167 107.719 273.167C99.3021 273.167 91.901 269.172 87.6302 263.125C94.6562 327.474 140.057 380.286 200.458 398.208C204.068 392.359 208.865 387.312 214.51 383.401V277.13ZM93.2396 251.104C93.2396 245.839 97.5052 241.573 102.771 241.573C108.031 241.573 112.302 245.839 112.302 251.104C112.302 256.37 108.031 260.635 102.771 260.635C97.5052 260.635 93.2396 256.37 93.2396 251.104ZM398.323 251.104C398.323 245.844 394.057 241.573 388.797 241.573C383.531 241.573 379.266 245.844 379.266 251.104C379.266 256.37 383.531 260.635 388.797 260.635C394.057 260.635 398.323 256.37 398.323 251.104ZM249.635 86.6041L249.734 86.6927C249.828 86.7812 249.927 86.8698 250.021 86.9583L250.031 86.9739C250.125 87.0625 250.214 87.1562 250.302 87.25L250.396 87.3437L250.573 87.5416L250.656 87.6354L250.661 87.6406L250.745 87.7448L250.75 87.75L250.818 87.8333L250.833 87.8489L250.911 87.9479L250.979 88.0312L251.167 88.2812L251.281 88.4427L251.328 88.5104L251.385 88.5937L251.458 88.7083L251.464 88.7135L251.531 88.8125V88.8177L251.604 88.9323L251.661 89.0312L251.672 89.0469L251.74 89.1614L251.745 89.1719L251.807 89.276L251.87 89.3958L251.911 89.4739L251.964 89.5729L251.995 89.6302L252.057 89.75L252.073 89.7916L252.115 89.8698L252.219 90.0989L252.292 90.2656L252.328 90.3541L252.391 90.5104L252.417 90.5677L252.49 90.7656L252.495 90.7708C252.521 90.8489 252.547 90.9219 252.573 91V91.0052L252.578 91.0208L252.646 91.2135L252.651 91.2396L252.656 91.2552L252.714 91.4479L252.729 91.5052L252.781 91.6823L252.797 91.75L252.849 91.9635L252.854 91.9791L252.901 92.2135L252.906 92.2291C252.922 92.3021 252.937 92.3802 252.948 92.4531L252.953 92.4687L252.958 92.5C252.969 92.5729 252.984 92.6458 252.995 92.7187V92.7291C253.005 92.8073 253.016 92.8854 253.026 92.9635L253.031 92.9791L253.057 93.2135V93.25C253.068 93.3177 253.073 93.3906 253.078 93.4635L253.083 93.5104C253.089 93.5885 253.094 93.6666 253.099 93.7396V93.7656L253.109 93.9896V94.0364C253.109 94.1146 253.109 94.1927 253.109 94.276C253.109 99.9114 248.542 104.479 242.906 104.479C237.271 104.479 232.703 99.9114 232.703 94.276C232.703 94.1927 232.703 94.1146 232.708 94.0364V94.0052C232.708 93.8385 232.719 93.6719 232.729 93.5104L232.734 93.4896V93.4635C232.745 93.3073 232.766 93.1458 232.781 92.9896L232.786 92.9635L232.818 92.75L232.823 92.6979L232.859 92.4844L232.87 92.4479L232.911 92.2291L232.917 92.2031L232.964 91.9896L232.969 91.9479L233.021 91.7396L233.031 91.7031L233.083 91.5052L233.099 91.4479L233.156 91.2656L233.161 91.2396L233.167 91.2187L233.234 91.0208L233.245 90.9791L233.318 90.776L233.323 90.7656V90.7604C233.349 90.6927 233.375 90.6302 233.401 90.5625L233.411 90.5364V90.5312L233.427 90.4948L233.484 90.3541L233.521 90.2656L233.599 90.0885L233.604 90.0781L233.615 90.0625L233.703 89.8698L233.708 89.8541L233.724 89.8281L233.802 89.6666L233.833 89.6041L233.839 89.5989L233.896 89.4844L233.911 89.4583L233.953 89.3854L234.036 89.2344L234.073 89.1666L234.172 89.0052L234.193 88.9635L234.297 88.8021L234.333 88.7448L234.411 88.625L234.484 88.5156L234.49 88.5052L234.562 88.401L234.615 88.3281L234.771 88.1198L234.786 88.0937L234.865 87.9948L234.88 87.9739L234.906 87.9479L235.026 87.7969L235.036 87.7864L235.062 87.75L235.167 87.6302L235.187 87.6041L235.193 87.5989L235.302 87.4739L235.417 87.3437L235.464 87.2969L235.573 87.1823L235.812 86.9427C237.651 85.1666 240.151 84.0729 242.906 84.0729C245.484 84.0729 247.839 85.026 249.635 86.6041Z" fill="white"/>
<path fill-rule="evenodd" clip-rule="evenodd" d="M168.219 421.354L160.391 417.943C160.854 416.63 161 415.521 160.823 414.62C160.531 413.156 159.625 412.031 158.094 411.25C156.958 410.667 155.943 410.484 155.057 410.703C154.161 410.922 153.536 411.385 153.177 412.089C152.833 412.755 152.812 413.505 153.125 414.333C153.437 415.167 154.547 416.354 156.437 417.927C159.542 420.5 161.5 422.828 162.323 424.896C163.161 426.969 163.062 429.016 162.026 431.036C161.349 432.365 160.323 433.417 158.948 434.203C157.568 434.995 155.937 435.328 154.047 435.208C152.151 435.094 149.859 434.344 147.172 432.964C143.865 431.271 141.661 429.37 140.562 427.25C139.458 425.13 139.432 422.646 140.474 419.792L148.214 423.198C147.812 424.474 147.797 425.542 148.161 426.401C148.531 427.266 149.281 427.984 150.406 428.557C151.333 429.036 152.141 429.198 152.812 429.047C153.479 428.896 153.964 428.536 154.25 427.969C154.464 427.557 154.458 427.094 154.245 426.568C154.057 426.036 153.323 425.266 152.068 424.25C148.964 421.708 146.854 419.667 145.745 418.125C144.63 416.578 144.01 415.062 143.911 413.568C143.807 412.078 144.12 410.625 144.844 409.214C145.693 407.557 146.932 406.26 148.568 405.328C150.203 404.401 152.026 403.99 154.047 404.115C156.057 404.234 158.312 404.932 160.818 406.214C165.214 408.469 167.823 410.875 168.651 413.432C169.474 415.99 169.333 418.63 168.219 421.354ZM131.672 405.021L122.448 397.776L126.312 392.859L135.531 400.109L131.672 405.021ZM98.875 398.552L91.1198 389.599L101.531 374.615L85.2031 382.766L77.4843 373.859L99.4479 354.833L104.255 360.385L87.5156 374.885L107.969 364.667L112.328 369.698L99.2864 388.474L116.026 373.974L120.839 379.526L98.875 398.552ZM80.6979 351.422L74.8541 341.255L80.2708 338.141L86.1198 348.307L80.6979 351.422ZM67.2552 301.021C67.5677 299.693 67.7604 298.833 67.8125 298.443C67.901 297.865 67.9583 297.089 68 296.146L73.5833 296.609C73.4791 297.995 73.2656 299.417 72.9375 300.865C72.6093 302.318 72.3385 303.349 72.125 303.953C73.651 305.484 74.9635 307.63 76.0625 310.417C77.6823 314.521 77.8906 318.187 76.6875 321.401C75.2604 325.203 72.2604 328.01 67.6823 329.818C63.2291 331.568 59.2916 331.703 55.8593 330.224C52.4323 328.74 49.8489 325.802 48.1093 321.396C46.3437 316.911 46.1823 312.979 47.625 309.583C49.0677 306.198 52.0364 303.615 56.5156 301.849C60.5052 300.276 64.0833 300 67.2552 301.021ZM65.4896 309.109C64.0364 308.911 62.125 309.276 59.7552 310.214C57.0312 311.286 55.2864 312.562 54.5156 314.036C53.7552 315.516 53.7187 317.146 54.4218 318.932C55.0833 320.599 56.2083 321.708 57.8073 322.271C59.4062 322.844 61.4687 322.625 64 321.625C66.9531 320.464 68.8229 319.141 69.6146 317.667C70.4062 316.187 70.4583 314.562 69.7656 312.807C69.5416 312.245 69.276 311.729 68.9687 311.271C68.5677 312.245 68.3698 313.599 68.3593 315.354L64.8437 315.229C64.6823 314.437 64.625 313.792 64.6614 313.302C64.6927 312.812 64.8906 311.802 65.25 310.271C65.3333 309.911 65.4166 309.521 65.4896 309.109ZM54.3541 287.646L52.2916 276.099L58.4479 275L60.5104 286.547L54.3541 287.646ZM34.9948 262.036L34.7656 253.073L56.6771 252.516L56.3177 238.479L63.4583 238.302L64.0416 261.302L34.9948 262.036ZM50.8958 225.969L52.375 214.339L58.5729 215.125L57.0937 226.76L50.8958 225.969ZM40.4896 195.5L42.9531 186.833L70.9062 194.771L68.4427 203.437L40.4896 195.5ZM62.1718 177.406L66.4739 166.495L72.2916 168.786L67.9896 179.698L62.1718 177.406ZM58.3489 146.771L63.4114 138.87L84.5521 144.646L70.4323 127.927L75.3489 120.255L93.9843 145.021L88.7396 153.208L58.3489 146.771ZM95.7448 119.818L103.422 110.953L108.146 115.042L100.469 123.906L95.7448 119.818ZM104.604 88.0625L117.828 77.6666C120.031 75.9375 122.151 75.1562 124.187 75.3177C126.224 75.4791 127.88 76.3698 129.146 77.9791C130.208 79.3281 130.698 80.8177 130.609 82.4479C130.557 83.5364 130.13 84.6875 129.349 85.9114C131.302 85.0156 133.036 84.7448 134.568 85.0989C136.094 85.4531 137.432 86.3593 138.573 87.8073C139.505 88.9948 140.062 90.276 140.26 91.651C140.453 93.0364 140.281 94.375 139.766 95.6718C139.437 96.4843 138.74 97.4323 137.661 98.5312C136.234 99.9843 135.266 100.922 134.745 101.328L122.557 110.906L104.604 88.0625ZM118.766 91.4375L121.844 89.0156C122.943 88.151 123.562 87.3541 123.698 86.6354C123.828 85.9166 123.615 85.1979 123.052 84.4791C122.531 83.8125 121.901 83.4635 121.177 83.4323C120.453 83.3906 119.552 83.7968 118.479 84.6406L115.354 87.0989L118.766 91.4375ZM125.812 100.401L129.411 97.5729C130.63 96.6145 131.312 95.7239 131.474 94.901C131.635 94.0781 131.437 93.3073 130.865 92.5781C130.333 91.901 129.661 91.552 128.844 91.5312C128.026 91.5104 127 91.9843 125.76 92.9583L122.172 95.776L125.812 100.401Z" fill="white"/>
<path fill-rule="evenodd" clip-rule="evenodd" d="M365.594 71.2708L372.974 77.0677L365.198 97.5573L383.193 85.0989L390.354 90.7291L363.922 106.911L356.271 100.901L365.594 71.2708ZM388.547 111.417L396.224 120.281L391.5 124.37L383.823 115.505L388.547 111.417ZM393.427 138.542L417.885 122.859L425.964 135.458C427.458 137.792 428.406 139.708 428.792 141.198C429.182 142.687 429.078 144.161 428.479 145.615C427.875 147.068 426.792 148.292 425.234 149.292C423.875 150.161 422.516 150.625 421.161 150.677C419.802 150.734 418.495 150.448 417.224 149.823C416.422 149.427 415.531 148.75 414.552 147.792C414.828 148.885 414.953 149.729 414.917 150.333C414.891 150.734 414.719 151.417 414.401 152.365C414.083 153.307 413.802 153.984 413.557 154.391L408.844 162.594L403.37 154.052L408.24 145.234C408.88 144.099 409.214 143.245 409.25 142.661C409.276 141.87 409.063 141.13 408.625 140.443L408.198 139.776L398.286 146.13L393.427 138.542ZM412.807 136.818L414.854 140.016C415.073 140.354 415.62 140.953 416.474 141.802C416.896 142.24 417.411 142.49 418.031 142.531C418.651 142.583 419.224 142.443 419.76 142.099C420.552 141.594 421 140.953 421.099 140.177C421.208 139.406 420.813 138.328 419.927 136.948L417.797 133.62L412.807 136.818ZM424.833 165.849L429.135 176.76L423.323 179.052L419.021 168.141L424.833 165.849ZM429.536 189.25L431.974 197.432C430.667 197.922 429.724 198.526 429.156 199.24C428.224 200.406 427.948 201.823 428.333 203.5C428.62 204.745 429.13 205.641 429.875 206.177C430.615 206.719 431.375 206.901 432.146 206.724C432.875 206.552 433.464 206.083 433.896 205.312C434.328 204.536 434.521 202.922 434.505 200.464C434.474 196.432 434.995 193.437 436.047 191.474C437.089 189.495 438.719 188.255 440.932 187.745C442.38 187.406 443.849 187.516 445.339 188.057C446.828 188.604 448.135 189.635 449.266 191.156C450.396 192.682 451.297 194.917 451.979 197.859C452.813 201.479 452.776 204.391 451.865 206.599C450.958 208.807 449.078 210.427 446.219 211.469L443.833 203.359C445.068 202.844 445.901 202.167 446.318 201.333C446.74 200.495 446.807 199.458 446.526 198.224C446.292 197.208 445.896 196.49 445.349 196.073C444.802 195.661 444.214 195.526 443.594 195.667C443.146 195.771 442.792 196.073 442.526 196.573C442.245 197.062 442.125 198.115 442.156 199.734C442.219 203.745 442.01 206.672 441.547 208.516C441.083 210.365 440.323 211.812 439.245 212.849C438.172 213.891 436.859 214.589 435.313 214.943C433.5 215.365 431.708 215.25 429.943 214.604C428.182 213.948 426.693 212.818 425.484 211.193C424.281 209.578 423.359 207.401 422.729 204.661C421.62 199.849 421.776 196.302 423.203 194.021C424.625 191.74 426.74 190.151 429.536 189.25ZM440.693 226.453L441.578 238.146L435.349 238.62L434.458 226.927L440.693 226.453ZM457.469 254.849L456.411 263.161L439.125 271.948L455.036 273.969L453.969 282.385L425.146 278.724L426.214 270.307L443.406 261.573L427.578 259.557L428.641 251.187L457.469 254.849ZM435.63 294.052L432.427 305.333L426.411 303.625L429.615 292.344L435.63 294.052ZM424.708 315.323L421.688 323.307C420.354 322.906 419.234 322.818 418.349 323.042C416.901 323.401 415.823 324.359 415.115 325.927C414.589 327.094 414.453 328.115 414.719 328.99C414.979 329.875 415.469 330.474 416.193 330.802C416.875 331.109 417.625 331.094 418.438 330.74C419.25 330.391 420.385 329.224 421.865 327.255C424.286 324.031 426.51 321.964 428.542 321.042C430.568 320.104 432.615 320.099 434.688 321.036C436.042 321.651 437.146 322.625 438 323.958C438.854 325.297 439.271 326.906 439.245 328.807C439.219 330.703 438.583 333.026 437.339 335.781C435.807 339.167 434.016 341.458 431.948 342.661C429.891 343.87 427.411 344.016 424.505 343.109L427.526 335.214C428.823 335.552 429.891 335.521 430.729 335.109C431.578 334.698 432.26 333.917 432.781 332.766C433.208 331.812 433.328 331 433.146 330.339C432.964 329.677 432.578 329.214 432 328.953C431.583 328.76 431.115 328.792 430.599 329.026C430.078 329.24 429.349 330.01 428.396 331.312C426.005 334.542 424.068 336.745 422.583 337.927C421.094 339.12 419.609 339.807 418.12 339.979C416.641 340.156 415.172 339.917 413.724 339.26C412.031 338.495 410.677 337.318 409.667 335.734C408.661 334.146 408.161 332.344 408.182 330.323C408.203 328.307 408.797 326.016 409.953 323.453C411.99 318.953 414.266 316.229 416.781 315.281C419.297 314.333 421.938 314.344 424.708 315.323ZM410.422 352.026L403.625 361.589L398.531 357.964L405.328 348.406L410.422 352.026ZM405.99 384.646L397.417 392.818L381.953 383.135L390.875 399.052L382.344 407.187L362.292 386.156L367.609 381.089L382.896 397.12L371.714 377.177L376.531 372.583L395.906 384.714L380.625 368.682L385.938 363.615L405.99 384.646ZM360.786 404.156L351.229 410.953L347.604 405.859L357.161 399.062L360.786 404.156ZM347.724 431.339L339.177 435.203L324.594 418.844L327.328 440.557L319.031 444.312L316.891 413.391L325.75 409.38L347.724 431.339Z" fill="white"/>
<path fill-rule="evenodd" clip-rule="evenodd" d="M204.312 39.4479L217.802 37.7344C219.51 37.5156 220.953 37.5104 222.125 37.7135C223.302 37.9167 224.333 38.3281 225.234 38.9271C226.135 39.5312 226.87 40.2864 227.427 41.2083C227.995 42.1198 228.344 43.1146 228.484 44.1979C228.76 46.3802 228.156 48.3177 226.661 50.0104C225.172 51.6979 222.948 52.7292 219.995 53.1042L215.635 53.6562L216.245 58.4375C216.318 59.0312 216.411 59.4062 216.521 59.5521C216.656 59.776 216.844 59.9219 217.083 60.0052C217.323 60.0833 217.708 60.0937 218.25 60.026L219.547 59.8594L219.995 63.3802L207.557 64.9583L207.109 61.4375L207.969 61.3281C208.729 61.2344 209.229 61.1146 209.458 60.9739C209.687 60.8333 209.849 60.6354 209.927 60.3854C210.005 60.1302 210 59.6302 209.906 58.8906L208.12 44.8542C208.021 44.0677 207.906 43.5573 207.776 43.3229C207.651 43.0833 207.469 42.9167 207.24 42.8333C207.01 42.7396 206.599 42.7344 205.99 42.8125L204.76 42.9687L204.312 39.4479ZM214.208 42.4167L215.13 49.6823L217.318 49.4062C218.646 49.2396 219.609 48.9739 220.198 48.6198C220.792 48.2656 221.234 47.7812 221.542 47.1614C221.854 46.5469 221.953 45.8489 221.854 45.0625C221.703 43.8854 221.135 43.0156 220.146 42.4427C219.406 42.0156 218.375 41.8854 217.057 42.0573L214.208 42.4167ZM237.13 35.9739L242.937 35.8229L251.161 55.4896C251.609 56.5208 252 57.1614 252.323 57.3958C252.656 57.6354 253.26 57.7396 254.125 57.7187L254.219 61.2656L242.062 61.5729L241.969 58.026L242.708 57.9896C243.38 57.9687 243.849 57.8698 244.115 57.6823C244.38 57.5 244.51 57.276 244.5 57.0156C244.495 56.7969 244.37 56.3437 244.115 55.6614L243.271 53.3437L235.479 53.5417L234.583 56.1667C234.401 56.7239 234.307 57.0833 234.312 57.2604C234.318 57.4583 234.391 57.6302 234.542 57.7917C234.682 57.9427 234.922 58.0573 235.245 58.1198C235.453 58.1667 236.036 58.1771 236.99 58.151L237.078 61.6979L227.109 61.9531L227.021 58.401C227.661 58.3854 228.125 58.3177 228.422 58.2031C228.708 58.0833 228.948 57.9114 229.13 57.6875C229.312 57.4635 229.516 57.0417 229.734 56.4375L237.13 35.9739ZM236.74 49.8437L241.839 49.7187L239.167 42.7448L236.74 49.8437ZM260.047 35.9896L273.76 37.7344L273.312 41.2552L272.25 41.1198C271.687 41.0469 271.328 41.0469 271.167 41.1198C270.995 41.1979 270.901 41.3333 270.875 41.5417C270.865 41.6458 270.88 41.7708 270.927 41.8906C270.974 42.0156 271.12 42.2708 271.37 42.6667L273.589 46.2031L277.187 43.3229C277.635 42.9323 277.87 42.6406 277.896 42.4479C277.917 42.2448 277.854 42.0885 277.708 41.9635C277.552 41.8437 277.177 41.7448 276.583 41.6719L275.635 41.5521L276.083 38.026L287.547 39.4844L287.099 43.0052C286.255 42.901 285.656 42.875 285.292 42.9271C284.932 42.9844 284.505 43.1354 284.016 43.375C283.656 43.5573 283.255 43.8385 282.812 44.2135L275.849 49.7917L281.609 58.9792C282.318 59.9531 282.927 60.6094 283.427 60.9271C283.932 61.2448 284.651 61.4635 285.573 61.5833L285.13 65.1042L271.156 63.3281L271.604 59.8073L272.88 59.9687C273.474 60.0417 273.854 60.0469 274.01 59.9844C274.172 59.9167 274.255 59.7917 274.276 59.625C274.307 59.3958 274.151 59.0104 273.812 58.4896L270.839 53.8073L266.234 57.5C265.844 57.8385 265.63 58.1562 265.594 58.4583C265.573 58.625 265.641 58.7812 265.812 58.9114C265.984 59.0417 266.349 59.1406 266.927 59.2083L267.932 59.3385L267.484 62.8594L255.833 61.3802L256.281 57.8594C257.089 57.9635 257.667 57.9896 258.01 57.9427C258.359 57.9062 258.693 57.8021 258.995 57.6458C259.516 57.3646 260.167 56.9323 260.932 56.3489L268.573 50.2292L263.12 41.6146C262.547 40.8281 262.068 40.3073 261.677 40.0625C261.276 39.8229 260.589 39.6354 259.599 39.5104L260.047 35.9896Z" fill="white"/>
<path fill-rule="evenodd" clip-rule="evenodd" d="M288.974 49.75L294.979 52.7864L292.552 42.8333L298.146 45.6094L300.604 55.7291L304.016 57.5156L301.526 47.2916L306.188 49.6041L308.698 59.9635L312.646 62.026L310.094 51.5469L313.823 53.401L316.391 63.9896L321.37 66.5937L318.76 55.8541L322.115 57.5208L324.74 68.3594L330.964 71.6146L329.135 75.3646L321.906 72.0833L315.229 78.2239L312.089 77.2135L319.068 70.8021L313.156 68.1198L305.547 75.1094L302.057 73.9896L310.005 66.6927L306.021 64.8854L297.651 72.5729L293.292 71.1719L302.078 63.0989L298.526 61.4896L289.365 69.9114L284.13 68.2291L293.802 59.3489L287.958 56.7031L288.974 49.75Z" fill="white"/>
<path fill-rule="evenodd" clip-rule="evenodd" d="M197.802 49.75L191.792 52.7864L194.219 42.8333L188.625 45.6094L186.172 55.7291L182.755 57.5156L185.245 47.2916L180.589 49.6041L178.073 59.9635L174.13 62.026L176.677 51.5469L172.953 53.401L170.385 63.9896L165.401 66.5937L168.016 55.8541L164.661 57.5208L162.031 68.3594L155.807 71.6146L157.635 75.3646L164.87 72.0833L171.547 78.2239L174.687 77.2135L167.703 70.8021L173.615 68.1198L181.224 75.1094L184.714 73.9896L176.766 66.6927L180.755 64.8854L189.12 72.5729L193.484 71.1719L184.693 63.0989L188.245 61.4896L197.406 69.9114L202.646 68.2291L192.974 59.3489L198.812 56.7031L197.802 49.75Z" fill="white"/>
<path fill-rule="evenodd" clip-rule="evenodd" d="M168.219 285.807C179.172 285.807 189.089 290.25 196.266 297.427C203.443 304.604 207.885 314.521 207.885 325.474C207.885 336.422 203.443 346.339 196.266 353.521C189.089 360.698 179.172 365.135 168.219 365.135C157.266 365.135 147.349 360.698 140.172 353.521C132.995 346.339 128.557 336.427 128.557 325.474C128.557 314.521 132.995 304.604 140.172 297.427C147.349 290.25 157.266 285.807 168.219 285.807ZM329.401 155.802L329.719 169.911H328.443C327.833 166.38 326.354 163.536 323.995 161.391C321.625 159.24 319.068 158.167 316.323 158.167C314.198 158.167 312.516 158.729 311.281 159.87C310.036 160.995 309.422 162.302 309.422 163.771C309.422 164.708 309.646 165.536 310.078 166.271C310.677 167.24 311.646 168.208 312.984 169.167C313.964 169.849 316.219 171.068 319.75 172.812C324.708 175.24 328.047 177.536 329.771 179.698C331.484 181.859 332.333 184.323 332.333 187.115C332.333 190.646 330.953 193.677 328.198 196.219C325.443 198.76 321.943 200.036 317.698 200.036C316.37 200.036 315.099 199.901 313.922 199.635C312.729 199.37 311.24 198.854 309.453 198.099C308.453 197.687 307.635 197.484 306.984 197.484C306.443 197.484 305.88 197.698 305.271 198.115C304.667 198.536 304.177 199.177 303.802 200.036H302.719V184.078H303.802C304.719 188.557 306.484 191.984 309.089 194.333C311.708 196.687 314.516 197.87 317.536 197.87C319.87 197.87 321.729 197.229 323.109 195.964C324.495 194.698 325.187 193.229 325.187 191.536C325.187 190.547 324.922 189.578 324.391 188.646C323.854 187.708 323.057 186.823 321.974 185.974C320.891 185.135 318.974 184.036 316.229 182.687C312.38 180.802 309.615 179.187 307.932 177.859C306.26 176.526 304.974 175.036 304.068 173.401C303.167 171.75 302.719 169.943 302.719 167.974C302.719 164.604 303.953 161.729 306.432 159.359C308.901 156.984 312.016 155.802 315.781 155.802C317.156 155.802 318.484 155.964 319.771 156.292C320.75 156.547 321.943 157.005 323.344 157.677C324.75 158.349 325.729 158.677 326.292 158.677C326.833 158.677 327.26 158.516 327.568 158.187C327.88 157.859 328.177 157.057 328.443 155.802H329.401ZM317.526 138.255C328.479 138.255 338.396 142.698 345.573 149.875C352.75 157.052 357.193 166.969 357.193 177.922C357.193 188.875 352.75 198.792 345.573 205.969C338.396 213.146 328.479 217.583 317.526 217.583C306.573 217.583 296.656 213.146 289.479 205.969C282.302 198.792 277.865 188.875 277.865 177.922C277.865 166.969 282.302 157.052 289.479 149.875C296.656 142.698 306.573 138.255 317.526 138.255ZM341.62 153.828C335.453 147.661 326.937 143.849 317.526 143.849C308.12 143.849 299.599 147.661 293.432 153.828C287.271 159.995 283.453 168.51 283.453 177.922C283.453 187.328 287.271 195.849 293.432 202.016C299.599 208.177 308.12 211.995 317.526 211.995C326.937 211.995 335.453 208.177 341.62 202.016C347.786 195.849 351.599 187.328 351.599 177.922C351.599 168.51 347.786 159.995 341.62 153.828ZM188.229 155.802V170.484H187.016C186.104 166.635 184.411 163.677 181.922 161.625C179.432 159.573 176.615 158.547 173.464 158.547C170.839 158.547 168.422 159.302 166.219 160.828C164.026 162.349 162.422 164.339 161.401 166.792C160.094 169.943 159.443 173.443 159.443 177.292C159.443 181.078 159.922 184.536 160.87 187.656C161.828 190.76 163.318 193.125 165.349 194.708C167.38 196.302 170.016 197.099 173.25 197.099C175.911 197.099 178.339 196.516 180.547 195.354C182.75 194.187 185.083 192.187 187.526 189.333V192.974C185.167 195.453 182.698 197.25 180.135 198.37C177.568 199.484 174.583 200.036 171.156 200.036C166.646 200.036 162.646 199.135 159.156 197.323C155.656 195.516 152.953 192.911 151.062 189.526C149.156 186.135 148.208 182.526 148.208 178.698C148.208 174.667 149.26 170.839 151.37 167.219C153.474 163.604 156.318 160.792 159.901 158.792C163.474 156.802 167.271 155.802 171.307 155.802C174.271 155.802 177.401 156.453 180.698 157.74C182.615 158.495 183.828 158.87 184.339 158.87C185.005 158.87 185.583 158.625 186.068 158.135C186.557 157.646 186.87 156.87 187.016 155.802H188.229ZM168.219 138.255C179.172 138.255 189.089 142.698 196.266 149.875C203.443 157.052 207.885 166.969 207.885 177.922C207.885 188.875 203.443 198.792 196.266 205.969C189.089 213.146 179.172 217.583 168.219 217.583C157.266 217.583 147.349 213.146 140.172 205.969C132.995 198.792 128.557 188.875 128.557 177.922C128.557 166.969 132.995 157.052 140.172 149.875C147.349 142.698 157.266 138.255 168.219 138.255ZM192.312 153.828C186.146 147.661 177.63 143.849 168.219 143.849C158.812 143.849 150.292 147.661 144.125 153.828C137.964 159.995 134.146 168.51 134.146 177.922C134.146 187.328 137.964 195.849 144.125 202.016C150.292 208.177 158.812 211.995 168.219 211.995C177.63 211.995 186.146 208.177 192.312 202.016C198.479 195.849 202.292 187.328 202.292 177.922C202.292 168.51 198.479 159.995 192.312 153.828ZM325.021 324.172C329.052 325.109 331.891 326.25 333.521 327.578C335.859 329.474 337.031 331.927 337.031 334.948C337.031 338.13 335.755 340.771 333.193 342.854C330.052 345.375 325.49 346.63 319.51 346.63H298.021V345.547C299.979 345.547 301.307 345.365 302 344.995C302.703 344.63 303.193 344.151 303.469 343.568C303.755 342.984 303.896 341.536 303.896 339.229V311.719C303.896 309.406 303.755 307.964 303.469 307.365C303.193 306.771 302.693 306.292 301.99 305.927C301.276 305.578 299.958 305.396 298.021 305.396V304.312H318.297C323.151 304.312 326.573 304.75 328.594 305.609C330.615 306.474 332.203 307.76 333.37 309.474C334.531 311.187 335.115 313.016 335.115 314.943C335.115 316.984 334.37 318.792 332.88 320.385C331.396 321.974 328.776 323.24 325.021 324.172ZM313.661 323.333C316.641 323.333 318.839 323.005 320.255 322.333C321.672 321.672 322.755 320.74 323.51 319.526C324.266 318.323 324.651 316.781 324.651 314.906C324.651 313.036 324.276 311.505 323.531 310.312C322.786 309.109 321.724 308.208 320.328 307.578C318.948 306.953 316.724 306.651 313.661 306.677V323.333ZM313.661 325.76V340.875C313.661 341.995 313.937 342.844 314.5 343.406C315.062 343.984 315.896 344.271 317 344.271C318.641 344.271 320.141 343.896 321.521 343.161C322.906 342.427 323.958 341.365 324.693 339.958C325.427 338.568 325.797 337.005 325.797 335.292C325.797 333.323 325.385 331.557 324.562 329.995C323.734 328.427 322.521 327.323 320.906 326.682C319.286 326.047 316.875 325.74 313.661 325.76ZM317.526 285.807C328.479 285.807 338.396 290.25 345.573 297.427C352.75 304.604 357.193 314.521 357.193 325.474C357.193 336.422 352.75 346.339 345.573 353.521C338.396 360.698 328.479 365.135 317.526 365.135C306.573 365.135 296.656 360.698 289.479 353.521C282.302 346.339 277.865 336.427 277.865 325.474C277.865 314.521 282.302 304.604 289.479 297.427C296.656 290.25 306.573 285.807 317.526 285.807ZM341.62 301.38C335.453 295.214 326.937 291.401 317.526 291.401C308.12 291.401 299.599 295.214 293.432 301.38C287.271 307.547 283.453 316.062 283.453 325.474C283.453 334.88 287.271 343.401 293.432 349.562C299.599 355.729 308.12 359.542 317.526 359.542C326.937 359.542 335.453 355.729 341.62 349.562C347.786 343.401 351.599 334.88 351.599 325.474C351.599 316.062 347.786 307.547 341.62 301.38ZM166.115 327.484V339.229C166.115 341.536 166.25 342.984 166.542 343.578C166.818 344.172 167.318 344.651 168.042 345.016C168.75 345.365 170.073 345.547 171.984 345.547V346.63H150.474V345.547C152.432 345.547 153.76 345.365 154.453 344.995C155.156 344.63 155.646 344.151 155.922 343.568C156.208 342.984 156.349 341.536 156.349 339.229V311.719C156.349 309.406 156.208 307.964 155.922 307.365C155.646 306.771 155.156 306.292 154.443 305.927C153.729 305.578 152.411 305.396 150.474 305.396V304.312H168.922C174.995 304.312 179.359 305.396 181.995 307.557C184.646 309.729 185.964 312.427 185.964 315.672C185.964 318.427 185.115 320.781 183.401 322.74C181.698 324.693 179.349 326.026 176.349 326.74C174.339 327.24 170.922 327.484 166.115 327.484ZM166.115 306.74V325.057C166.807 325.099 167.328 325.12 167.677 325.12C170.219 325.12 172.187 324.365 173.562 322.854C174.932 321.344 175.625 319.005 175.625 315.833C175.625 312.682 174.932 310.385 173.562 308.927C172.187 307.474 170.125 306.74 167.401 306.74H166.115ZM192.312 301.38C186.146 295.214 177.63 291.401 168.219 291.401C158.812 291.401 150.292 295.214 144.125 301.38C137.964 307.547 134.146 316.062 134.146 325.474C134.146 334.88 137.964 343.401 144.125 349.562C150.292 355.729 158.812 359.542 168.219 359.542C177.63 359.542 186.146 355.729 192.312 349.562C198.479 343.401 202.292 334.88 202.292 325.474C202.292 316.062 198.479 307.547 192.312 301.38Z" fill="white"/>
</g>
<defs>
<clipPath id="clip0_1_2">
<rect width="491.333" height="491.333" fill="white"/>
</clipPath>
</defs>
</svg>
